<svg width="351" height="96" viewBox="0 0 351 96" fill="none" xmlns="http://www.w3.org/2000/svg">
<path d="M334.053 67.6178C335.055 66.0166 337.164 65.5179 338.779 66.5198C340.389 67.5217 340.879 69.6398 339.831 71.2456C333.33 81.6808 319.972 88.1587 304.971 88.1587C291.937 88.1587 280.157 83.2545 273.02 75.1296C265.888 83.2591 254.108 88.1587 241.074 88.1587C228.041 88.1587 216.261 83.2545 209.124 75.1296C201.992 83.2591 190.207 88.1587 177.173 88.1587C164.14 88.1587 152.359 83.2545 145.227 75.1296C138.1 83.2591 126.315 88.1587 113.281 88.1587C100.247 88.1587 88.4627 83.2545 81.3306 75.1296C74.203 83.2591 62.4228 88.1587 49.3846 88.1587C34.3791 88.1587 21.0206 81.6808 14.5198 71.2456C13.5179 69.6398 14.0074 67.5217 15.6177 66.5198C17.2189 65.5179 19.3371 66.0074 20.3435 67.6178C25.5222 75.9256 36.9181 81.2965 49.3846 81.2965C61.8464 81.2965 73.2469 75.9256 78.421 67.6178C78.4393 67.5903 78.4713 67.572 78.4896 67.5445C78.6131 67.357 78.7916 67.2197 78.9517 67.055C79.1164 66.8904 79.2628 66.7028 79.4503 66.5793C79.4778 66.561 79.4961 66.5335 79.5235 66.5152C79.6745 66.4283 79.8392 66.41 79.9902 66.3414C80.2189 66.2361 80.4385 66.1309 80.6855 66.0806C80.9051 66.0394 81.1156 66.0577 81.3397 66.0577C81.5639 66.0577 81.7743 66.0394 81.9939 66.0806C82.2318 66.1309 82.4514 66.2407 82.6802 66.3368C82.8403 66.41 83.005 66.4191 83.1559 66.5152C83.1834 66.5335 83.2017 66.561 83.2291 66.5838C83.4167 66.7074 83.5585 66.8904 83.7186 67.0505C83.8833 67.2152 84.0663 67.357 84.1899 67.5445C84.2127 67.572 84.2402 67.5903 84.2585 67.6178C89.4326 75.9256 100.833 81.2965 113.299 81.2965C125.766 81.2965 137.157 75.9256 142.336 67.6178C142.354 67.5903 142.386 67.572 142.405 67.5445C142.533 67.357 142.711 67.2152 142.876 67.0505C143.036 66.8858 143.182 66.7028 143.37 66.5838C143.397 66.561 143.406 66.5335 143.438 66.5152C143.589 66.4237 143.754 66.4054 143.914 66.3368L143.959 66.3164C144.163 66.2222 144.369 66.1275 144.591 66.0806C144.815 66.0394 145.031 66.0577 145.25 66.0577C145.47 66.0577 145.685 66.0394 145.909 66.0806C146.142 66.1309 146.357 66.2407 146.586 66.3368C146.742 66.4054 146.911 66.4191 147.062 66.5152C147.094 66.5335 147.103 66.5655 147.135 66.5838C147.318 66.7074 147.46 66.8858 147.62 67.0459C147.794 67.2152 147.972 67.357 148.096 67.5445C148.114 67.572 148.146 67.5903 148.164 67.6178C153.343 75.9256 164.734 81.2965 177.201 81.2965C189.667 81.2965 201.063 75.9256 206.242 67.6178C206.26 67.5903 206.292 67.572 206.31 67.5445C206.438 67.357 206.617 67.2152 206.782 67.0505C206.942 66.8858 207.083 66.7074 207.271 66.5838C207.298 66.5655 207.312 66.5335 207.344 66.5152C207.495 66.4237 207.66 66.41 207.82 66.3368L207.863 66.317C208.068 66.2226 208.275 66.1276 208.502 66.0806C208.721 66.0394 208.936 66.0577 209.156 66.0577C209.375 66.0577 209.59 66.0394 209.81 66.0806C210.048 66.1309 210.268 66.2407 210.492 66.3368C210.652 66.41 210.817 66.4191 210.967 66.5152C211 66.5335 211.013 66.5655 211.041 66.5838C211.228 66.7119 211.37 66.8904 211.53 67.0505C211.699 67.2152 211.878 67.357 212.001 67.5445C212.02 67.572 212.052 67.5903 212.07 67.6178C217.249 75.9256 228.645 81.2965 241.111 81.2965C253.573 81.2965 264.969 75.9256 270.148 67.6178C270.166 67.5903 270.198 67.572 270.216 67.5445C270.344 67.357 270.523 67.2152 270.687 67.0505C270.847 66.8858 270.989 66.7074 271.177 66.5838C271.204 66.5655 271.218 66.5335 271.25 66.5152C271.401 66.4237 271.566 66.41 271.726 66.3368L271.769 66.317C271.974 66.2226 272.181 66.1276 272.407 66.0806C272.627 66.0394 272.842 66.0577 273.062 66.0577C273.281 66.0577 273.496 66.0394 273.716 66.0806C273.954 66.1309 274.173 66.2407 274.397 66.3368C274.558 66.41 274.722 66.4191 274.873 66.5152C274.905 66.5335 274.919 66.5655 274.946 66.5838C275.134 66.7119 275.276 66.8904 275.436 67.0505C275.605 67.2152 275.784 67.357 275.907 67.5445C275.926 67.572 275.957 67.5903 275.976 67.6178C281.155 75.9256 292.55 81.2965 305.017 81.2965C317.479 81.2965 328.875 75.9256 334.053 67.6178Z" fill="#EB5E28"/>
<path d="M58.3802 10.76L48.6602 44H39.6002L33.5402 20.78L27.4802 44H18.3602L8.58016 10.76H17.1002L22.9802 36.08L29.3402 10.76H38.2202L44.4602 36.02L50.3402 10.76H58.3802ZM61.6652 27.56C61.6652 24.2 62.3252 21.26 63.6452 18.74C65.0052 16.18 66.8652 14.22 69.2252 12.86C71.6252 11.46 74.3252 10.76 77.3252 10.76C80.4452 10.76 83.1252 11.48 85.3652 12.92C87.6452 14.36 89.2852 16.2 90.2852 18.44V11.24H94.4852V44H90.2852V36.74C89.2452 38.98 87.5852 40.84 85.3052 42.32C83.0652 43.76 80.3852 44.48 77.2652 44.48C74.3052 44.48 71.6252 43.78 69.2252 42.38C66.8652 40.98 65.0052 39 63.6452 36.44C62.3252 33.88 61.6652 30.92 61.6652 27.56ZM90.2852 27.62C90.2852 24.98 89.7452 22.66 88.6652 20.66C87.5852 18.66 86.1052 17.12 84.2252 16.04C82.3852 14.96 80.3452 14.42 78.1052 14.42C75.7852 14.42 73.7052 14.94 71.8652 15.98C70.0252 17.02 68.5652 18.54 67.4852 20.54C66.4452 22.5 65.9252 24.84 65.9252 27.56C65.9252 30.24 66.4452 32.6 67.4852 34.64C68.5652 36.64 70.0252 38.18 71.8652 39.26C73.7052 40.3 75.7852 40.82 78.1052 40.82C80.3452 40.82 82.3852 40.28 84.2252 39.2C86.1052 38.12 87.5852 36.58 88.6652 34.58C89.7452 32.58 90.2852 30.26 90.2852 27.62ZM115.713 39.92L126.753 11.24H131.193L118.053 44H113.313L100.173 11.24H104.673L115.713 39.92ZM166.526 25.94C166.526 27.38 166.486 28.48 166.406 29.24H139.226C139.346 31.72 139.946 33.84 141.026 35.6C142.106 37.36 143.526 38.7 145.286 39.62C147.046 40.5 148.966 40.94 151.046 40.94C153.766 40.94 156.046 40.28 157.886 38.96C159.766 37.64 161.006 35.86 161.606 33.62H166.046C165.246 36.82 163.526 39.44 160.886 41.48C158.286 43.48 155.006 44.48 151.046 44.48C147.966 44.48 145.206 43.8 142.766 42.44C140.326 41.04 138.406 39.08 137.006 36.56C135.646 34 134.966 31.02 134.966 27.62C134.966 24.22 135.646 21.24 137.006 18.68C138.366 16.12 140.266 14.16 142.706 12.8C145.146 11.44 147.926 10.76 151.046 10.76C154.166 10.76 156.886 11.44 159.206 12.8C161.566 14.16 163.366 16 164.606 18.32C165.886 20.6 166.526 23.14 166.526 25.94ZM162.266 25.82C162.306 23.38 161.806 21.3 160.766 19.58C159.766 17.86 158.386 16.56 156.626 15.68C154.866 14.8 152.946 14.36 150.866 14.36C147.746 14.36 145.086 15.36 142.886 17.36C140.686 19.36 139.466 22.18 139.226 25.82H162.266ZM202.735 44.54C200.015 44.54 197.575 44.06 195.415 43.1C193.255 42.1 191.535 40.76 190.255 39.08C189.015 37.4 188.335 35.54 188.215 33.5H196.675C196.835 34.78 197.455 35.84 198.535 36.68C199.655 37.52 201.035 37.94 202.675 37.94C204.275 37.94 205.515 37.62 206.395 36.98C207.315 36.34 207.775 35.52 207.775 34.52C207.775 33.44 207.215 32.64 206.095 32.12C205.015 31.56 203.275 30.96 200.875 30.32C198.395 29.72 196.355 29.1 194.755 28.46C193.195 27.82 191.835 26.84 190.675 25.52C189.555 24.2 188.995 22.42 188.995 20.18C188.995 18.34 189.515 16.66 190.555 15.14C191.635 13.62 193.155 12.42 195.115 11.54C197.115 10.66 199.455 10.22 202.135 10.22C206.095 10.22 209.255 11.22 211.615 13.22C213.975 15.18 215.275 17.84 215.515 21.2H207.475C207.355 19.88 206.795 18.84 205.795 18.08C204.835 17.28 203.535 16.88 201.895 16.88C200.375 16.88 199.195 17.16 198.355 17.72C197.555 18.28 197.155 19.06 197.155 20.06C197.155 21.18 197.715 22.04 198.835 22.64C199.955 23.2 201.695 23.78 204.055 24.38C206.455 24.98 208.435 25.6 209.995 26.24C211.555 26.88 212.895 27.88 214.015 29.24C215.175 30.56 215.775 32.32 215.815 34.52C215.815 36.44 215.275 38.16 214.195 39.68C213.155 41.2 211.635 42.4 209.635 43.28C207.675 44.12 205.375 44.54 202.735 44.54ZM227.51 18.44C228.55 16.24 230.19 14.42 232.43 12.98C234.71 11.5 237.41 10.76 240.53 10.76C243.49 10.76 246.15 11.46 248.51 12.86C250.91 14.22 252.77 16.18 254.09 18.74C255.45 21.26 256.13 24.2 256.13 27.56C256.13 30.92 255.45 33.88 254.09 36.44C252.77 39 250.91 40.98 248.51 42.38C246.15 43.78 243.49 44.48 240.53 44.48C237.45 44.48 234.77 43.76 232.49 42.32C230.21 40.84 228.55 39 227.51 36.8V59.48H223.37V11.24H227.51V18.44ZM251.87 27.56C251.87 24.84 251.33 22.5 250.25 20.54C249.21 18.54 247.77 17.02 245.93 15.98C244.09 14.94 242.01 14.42 239.69 14.42C237.45 14.42 235.39 14.96 233.51 16.04C231.67 17.12 230.21 18.66 229.13 20.66C228.05 22.66 227.51 24.98 227.51 27.62C227.51 30.26 228.05 32.58 229.13 34.58C230.21 36.58 231.67 38.12 233.51 39.2C235.39 40.28 237.45 40.82 239.69 40.82C242.01 40.82 244.09 40.3 245.93 39.26C247.77 38.18 249.21 36.64 250.25 34.64C251.33 32.6 251.87 30.24 251.87 27.56ZM277.959 44.54C274.759 44.54 271.879 43.84 269.319 42.44C266.759 41 264.739 38.98 263.259 36.38C261.819 33.78 261.099 30.78 261.099 27.38C261.099 23.98 261.839 20.98 263.319 18.38C264.839 15.78 266.899 13.78 269.499 12.38C272.099 10.94 274.999 10.22 278.199 10.22C281.399 10.22 284.299 10.94 286.899 12.38C289.499 13.78 291.539 15.78 293.019 18.38C294.539 20.98 295.299 23.98 295.299 27.38C295.299 30.78 294.519 33.78 292.959 36.38C291.439 38.98 289.359 41 286.719 42.44C284.119 43.84 281.199 44.54 277.959 44.54ZM277.959 37.22C279.479 37.22 280.899 36.86 282.219 36.14C283.579 35.38 284.659 34.26 285.459 32.78C286.259 31.3 286.659 29.5 286.659 27.38C286.659 24.22 285.819 21.8 284.139 20.12C282.499 18.4 280.479 17.54 278.079 17.54C275.679 17.54 273.659 18.4 272.019 20.12C270.419 21.8 269.619 24.22 269.619 27.38C269.619 30.54 270.399 32.98 271.959 34.7C273.559 36.38 275.559 37.22 277.959 37.22ZM309.86 15.92C310.94 14.16 312.34 12.78 314.06 11.78C315.82 10.78 317.82 10.28 320.06 10.28V19.1H317.84C315.2 19.1 313.2 19.72 311.84 20.96C310.52 22.2 309.86 24.36 309.86 27.44V44H301.46V10.76H309.86V15.92ZM335.498 17.66V33.74C335.498 34.86 335.758 35.68 336.278 36.2C336.838 36.68 337.758 36.92 339.038 36.92H342.938V44H337.658C330.578 44 327.038 40.56 327.038 33.68V17.66H323.078V10.76H327.038V2.54H335.498V10.76H342.938V17.66H335.498Z" fill="black"/>
</svg>
